<svg width="198" height="73" viewBox="0 0 198 73" fill="none" xmlns="http://www.w3.org/2000/svg">
<path d="M196.509 11.1668C195.25 10.7778 193.879 10.8224 192.515 11.1101C190.771 11.3613 189.032 11.9974 187.235 12.9253C184.771 14.2016 182.619 16.1181 180.741 18.4398C180.106 19.2258 179.499 20.0605 178.921 20.9276C178.16 20.8992 177.371 20.8546 176.546 20.7858C168.725 20.1294 161.486 21.1585 160.738 30.6033C160.851 29.643 162.445 24.5337 171.525 25.0037C173.276 25.0928 174.935 25.0969 176.505 25.028C171.351 34.8739 168.955 47.1387 168.239 52.0819C165.237 52.0495 161.252 51.7294 155.895 50.9636C155.814 50.9515 155.725 50.9433 155.644 50.9312C156.348 46.227 155.061 2.22849 122.503 2.09073C113.06 2.05021 105.279 4.78113 99.1619 10.166C97.0215 12.0501 95.2615 14.1165 93.8697 16.3571C93.3235 16.9609 92.7045 17.6821 91.9883 18.5694C91.9883 18.5694 71.6329 43.796 71.0381 44.5618C70.6416 40.6234 69.7394 35.899 68.3314 30.3764C67.5141 27.1836 66.9719 24.9308 66.7008 23.618C69.444 19.2137 71.4104 15.5792 72.5958 12.7186C73.7813 9.85804 74.3761 7.32972 74.3761 5.12553C74.3761 1.70986 73.3767 0 71.3739 0C69.3712 0 67.3563 2.16772 65.4061 6.4991C63.4519 10.8305 62.4768 15.2388 62.4768 19.7161C62.4768 21.5232 62.7115 23.7638 63.1808 26.438C57.9412 33.8407 52.4468 39.4524 46.7015 43.2773C40.9521 47.1022 35.1137 49.0147 29.1823 49.0147C22.4336 49.0147 16.9512 47.24 12.7393 43.6866C8.52341 40.1331 6.41545 35.51 6.41545 29.8172C6.41545 25.263 7.81941 21.6123 10.6233 18.8652C13.4272 16.1181 17.1535 14.7445 21.8024 14.7445C25.4357 14.7445 29.4291 15.875 33.7785 18.1399C38.128 20.4049 42.5543 23.6544 47.0535 27.8886L48.0164 28.78L57.395 23.618L56.6546 22.5037C54.2553 23.8408 52.5277 24.5094 51.4636 24.5094C50.5735 24.5094 49.2262 23.7557 47.4216 22.2444C42.6271 18.2858 38.7187 15.5994 35.7044 14.1854C32.6861 12.7753 29.3279 12.0703 25.6178 12.0703C19.1887 12.0703 13.9815 13.8774 9.98806 17.4916C5.99466 21.1059 3.99999 25.8222 3.99999 31.6405C3.99999 36.1218 5.14905 40.0075 7.44718 43.3016C9.44994 46.223 12.1972 48.5366 15.697 50.2464C19.1927 51.9563 22.8948 52.8072 26.8032 52.8072C32.7873 52.8072 38.9291 50.7043 45.2328 46.4945C51.5364 42.2846 57.6297 36.2353 63.5126 28.3383C63.6097 28.8326 63.6744 29.1041 63.6987 29.1568L64.8478 34.1689C66.1344 39.8617 66.7777 44.0836 66.7777 46.8308C66.7777 48.488 66.3448 50.1613 65.4789 51.8428L66.4055 52.5114L67.2227 51.4701C67.2227 51.4701 87.1938 26.6811 88.2822 25.2995C88.3874 25.1658 88.4845 25.0402 88.5816 24.9186L89.9168 23.2493L91.5635 21.1545C90.5196 24.0839 89.9896 27.2565 89.9896 30.6803C89.9896 37.1672 92.0611 42.5196 96.2002 46.7416C100.339 50.9636 105.587 53.0746 111.939 53.0746C115.103 53.0746 117.798 52.6897 120.023 51.9239L119.8 51.2189C118.441 51.4417 117.28 51.5511 116.317 51.5511C109.839 51.5511 104.438 49.3429 100.113 44.9224C95.7875 40.5019 93.6229 34.9792 93.6229 28.3424C93.6229 21.2396 96.0586 15.4374 100.926 10.948C105.797 6.45453 112.089 4.03155 119.796 4.20983C150.841 4.91484 148.907 42.5561 148.847 50.3437C144.376 50.1249 139.573 50.1654 135.511 50.3437C133.836 42.5196 129.899 28.5004 122.985 19.947C121.107 17.6254 118.955 15.7088 116.491 14.4325C114.144 13.217 111.891 12.4998 109.605 12.4998L112.065 20.7047L113.218 20.5183C113.218 20.5183 111.923 15.802 113.647 15.7048C123.753 15.1416 130.482 49.2983 130.482 50.6314C130.482 50.6476 130.482 50.6638 130.482 50.68C128.406 50.8704 126.857 51.1054 126.153 51.3485C125.416 51.6038 125.311 51.9198 125.619 52.2723L125.594 52.3169C125.627 52.3291 125.671 52.3493 125.708 52.3615C127.338 53.9052 136.486 56 136.486 56C136.486 55.6961 136.341 54.5981 136.037 52.9409C139.513 52.3493 148.167 52.4628 167.632 54.594C174.968 55.3963 177.363 51.0973 178.362 51.2189C178.395 51.2189 177.61 49.8251 177.585 49.8453C176.319 50.4288 175.352 50.7205 174.689 50.7205C173.734 50.7205 173.256 50.1897 173.256 49.1281C173.256 48.2246 176.546 34.5133 181.551 24.5215C196.407 22.0783 200.615 12.4431 196.517 11.1749L196.509 11.1668ZM65.8471 14.5581C65.8471 11.6125 66.191 9.09225 66.8869 7.00152C67.5788 4.91079 68.4204 3.86542 69.4076 3.86542C70.7185 3.86542 71.3739 4.8176 71.3739 6.726C71.3739 8.5331 70.9208 10.7737 70.0185 13.4479C69.1163 16.1221 67.9227 18.7437 66.4419 21.3206C66.0454 18.7193 65.8471 16.4706 65.8471 14.5622V14.5581ZM183.569 20.8506C183.869 20.3684 184.172 19.9065 184.48 19.4608C187.34 15.9074 191.257 13.61 193.62 13.3385C195.028 13.2332 195.493 13.845 195.578 14.5581C195.38 16.2396 192.544 20.1375 183.569 20.8506Z" fill="#D8C7B6"/>
<path d="M1.42638 62.5576L5.29784 69.806H5.34608L9.25372 62.5576H10.0859V71H8.98838V64.1616H8.94014L5.12899 71.1447H4.9119L1.18517 64.1134H1.13693V71H0.606262V62.5576H1.42638Z" fill="#D8C7B6"/>
<path d="M12.9849 62.5576H18.4363V63.2209H14.0824V66.2481H17.8212V66.827H14.0824V70.3367H18.4363V71H12.9849V62.5576Z" fill="#D8C7B6"/>
<path d="M27.4885 69.4442L27.8503 69.7698C27.7458 69.8904 27.593 70.0311 27.392 70.1919C27.191 70.3527 26.9377 70.5055 26.6322 70.6502C26.3347 70.7869 25.9809 70.9035 25.5709 71C25.1688 71.0965 24.7105 71.1447 24.196 71.1447C23.3839 71.1447 22.6844 71.0201 22.0974 70.7709C21.5105 70.5136 21.028 70.1799 20.6501 69.7698C20.2722 69.3517 19.9908 68.8773 19.8059 68.3467C19.629 67.808 19.5406 67.2572 19.5406 66.6944C19.5406 66.0431 19.6531 65.4561 19.8783 64.9335C20.1034 64.4029 20.421 63.9526 20.8311 63.5827C21.2411 63.2048 21.7316 62.9154 22.3024 62.7144C22.8814 62.5134 23.5206 62.4128 24.2201 62.4128C24.7025 62.4128 25.1327 62.4611 25.5106 62.5576C25.8885 62.6541 26.2181 62.7867 26.4995 62.9556C26.781 63.1244 27.0141 63.3254 27.1991 63.5586C27.392 63.7918 27.5488 64.045 27.6694 64.3184H26.7769C26.7206 64.1496 26.6201 63.9847 26.4754 63.8239C26.3387 63.6551 26.1578 63.5063 25.9327 63.3777C25.7156 63.2491 25.4623 63.1445 25.1729 63.0641C24.8915 62.9837 24.5779 62.9435 24.2321 62.9435C23.7256 62.9435 23.2552 63.036 22.8211 63.2209C22.3949 63.4058 22.0251 63.6631 21.7115 63.9928C21.3979 64.3224 21.1527 64.7164 20.9758 65.1747C20.8069 65.625 20.7225 66.1235 20.7225 66.6702C20.7225 67.1848 20.8029 67.6793 20.9637 68.1537C21.1326 68.6281 21.3778 69.0462 21.6994 69.408C22.021 69.7698 22.4231 70.0593 22.9055 70.2764C23.3879 70.4935 23.9427 70.602 24.5698 70.602C25.6955 70.602 26.6684 70.2161 27.4885 69.4442Z" fill="#D8C7B6"/>
<path d="M32.7861 71H31.6886V63.2209H28.4564V62.5576H36.0184V63.2209H32.7861V71Z" fill="#D8C7B6"/>
<path d="M36.8625 66.7788C36.8625 66.3205 36.9469 65.834 37.1158 65.3195C37.2927 64.8049 37.5661 64.3345 37.9359 63.9084C38.3058 63.4742 38.7761 63.1164 39.347 62.835C39.9179 62.5536 40.6013 62.4128 41.3973 62.4128C42.2013 62.4128 42.8968 62.5576 43.4838 62.847C44.0788 63.1284 44.5692 63.4862 44.9552 63.9204C45.3411 64.3546 45.6266 64.829 45.8115 65.3436C45.9964 65.8501 46.0889 66.3285 46.0889 66.7788C46.0889 67.0763 46.0447 67.3899 45.9562 67.7195C45.8758 68.0492 45.7512 68.3788 45.5823 68.7085C45.4215 69.0301 45.2125 69.3397 44.9552 69.6372C44.6979 69.9266 44.3924 70.1839 44.0386 70.409C43.6928 70.6342 43.2989 70.8151 42.8566 70.9518C42.4225 71.0804 41.936 71.1447 41.3973 71.1447C40.6013 71.1447 39.9179 71.004 39.347 70.7226C38.7761 70.4331 38.3058 70.0713 37.9359 69.6372C37.5661 69.203 37.2927 68.7326 37.1158 68.2261C36.9469 67.7115 36.8625 67.229 36.8625 66.7788ZM38.0445 66.7788C38.0445 67.3416 38.1289 67.8602 38.2977 68.3346C38.4746 68.8009 38.7118 69.203 39.0093 69.5407C39.3148 69.8784 39.6726 70.1437 40.0827 70.3367C40.4928 70.5216 40.939 70.6141 41.4214 70.6141C41.8958 70.6141 42.3421 70.5216 42.7602 70.3367C43.1863 70.1437 43.5562 69.8784 43.8697 69.5407C44.1913 69.203 44.4446 68.8009 44.6295 68.3346C44.8145 67.8602 44.9069 67.3416 44.9069 66.7788C44.9069 66.216 44.8145 65.7014 44.6295 65.235C44.4446 64.7606 44.1913 64.3546 43.8697 64.0169C43.5562 63.6792 43.1863 63.4179 42.7602 63.233C42.3421 63.04 41.8958 62.9435 41.4214 62.9435C40.939 62.9435 40.4928 63.04 40.0827 63.233C39.6726 63.4179 39.3148 63.6792 39.0093 64.0169C38.7118 64.3546 38.4746 64.7606 38.2977 65.235C38.1289 65.7014 38.0445 66.216 38.0445 66.7788Z" fill="#D8C7B6"/>
<path d="M56.1697 62.5576L59.5105 70.4332H60.6924V72.2664H59.6672V71H52.3103V72.2664H51.2731V70.4332H52.4068L55.434 62.5576H56.1697ZM58.3526 70.4332L55.5546 63.8722H55.5063L52.9736 70.4332H58.3526Z" fill="#D8C7B6"/>
<path d="M66.5517 62.5576L70.2181 71H69.0241L65.9728 63.9084H65.9245L63.5727 69.8784C63.4119 70.2884 63.227 70.602 63.0179 70.8191C62.8169 71.0362 62.5878 71.1447 62.3305 71.1447C62.1697 71.1447 62.0088 71.1327 61.848 71.1085C61.6953 71.0844 61.5505 71.0482 61.4139 71L61.7395 70.1799C61.8199 70.2201 61.9083 70.2683 62.0048 70.3246C62.1013 70.3809 62.2018 70.409 62.3063 70.409C62.5717 70.409 62.7646 70.3005 62.8853 70.0834C63.0139 69.8663 63.1466 69.5768 63.2833 69.215L65.8883 62.5576H66.5517Z" fill="#D8C7B6"/>
<path d="M77.7926 62.5576V71H76.6951V67.2733H76.1645C75.9393 67.2733 75.7504 67.2934 75.5976 67.3336C75.4529 67.3738 75.3202 67.4421 75.1996 67.5386C75.079 67.6351 74.9664 67.7597 74.8619 67.9125C74.7574 68.0653 74.6328 68.2542 74.488 68.4793L73.5352 69.8904C73.4146 70.0754 73.294 70.2442 73.1734 70.397C73.0609 70.5497 72.9362 70.6824 72.7995 70.795C72.6629 70.8995 72.5061 70.9839 72.3292 71.0482C72.1603 71.1126 71.9553 71.1447 71.7141 71.1447C71.5372 71.1447 71.3925 71.1367 71.2799 71.1206C71.1673 71.1045 71.0548 71.0643 70.9422 71V70.5538C70.9824 70.5618 71.0226 70.5698 71.0628 70.5779C71.103 70.5779 71.1432 70.5779 71.1834 70.5779C71.3523 70.5779 71.501 70.5538 71.6297 70.5055C71.7583 70.4573 71.8789 70.3889 71.9915 70.3005C72.1041 70.204 72.2126 70.0914 72.3171 69.9628C72.4216 69.8261 72.5302 69.6733 72.6428 69.5045C72.9805 69.014 73.2418 68.6241 73.4267 68.3346C73.6116 68.0371 73.7564 67.808 73.8609 67.6471C73.9734 67.4863 74.0619 67.3698 74.1262 67.2974C74.1986 67.225 74.283 67.1647 74.3795 67.1165L74.5001 67.0562V67.0079C74.1142 66.9838 73.7805 66.8994 73.4991 66.7547C73.2257 66.6099 73.0006 66.429 72.8237 66.2119C72.6468 65.9948 72.5181 65.7617 72.4377 65.5124C72.3573 65.2551 72.3171 65.0059 72.3171 64.7647C72.3171 64.5476 72.3573 64.3104 72.4377 64.0531C72.5262 63.7958 72.6709 63.5586 72.8719 63.3415C73.081 63.1164 73.3624 62.9315 73.7161 62.7867C74.0699 62.634 74.5162 62.5576 75.0549 62.5576H77.7926ZM76.6951 63.0882H75.477C75.1715 63.0882 74.8941 63.1325 74.6448 63.2209C74.4036 63.3094 74.1946 63.434 74.0177 63.5948C73.8408 63.7476 73.7041 63.9325 73.6076 64.1496C73.5192 64.3667 73.4749 64.6039 73.4749 64.8612C73.4749 65.0782 73.5151 65.2994 73.5955 65.5245C73.684 65.7416 73.8126 65.9426 73.9815 66.1275C74.1503 66.3044 74.3554 66.4491 74.5966 66.5617C74.8458 66.6743 75.1313 66.7305 75.4529 66.7305H76.6951V63.0882Z" fill="#D8C7B6"/>
<path d="M84.9009 71V62.5576H87.9161C88.3342 62.5576 88.696 62.6219 89.0016 62.7505C89.3151 62.8712 89.5684 63.0279 89.7614 63.2209C89.9624 63.4139 90.1111 63.627 90.2076 63.8601C90.3041 64.0933 90.3523 64.3224 90.3523 64.5476C90.3523 64.8049 90.2961 65.0501 90.1835 65.2833C90.0709 65.5084 89.9182 65.7094 89.7252 65.8863C89.5403 66.0551 89.3232 66.1959 89.0739 66.3084C88.8247 66.413 88.5593 66.4652 88.2779 66.4652V66.5135C88.4548 66.5215 88.688 66.5496 88.9774 66.5979C89.2669 66.6461 89.5483 66.7426 89.8217 66.8873C90.0951 67.0321 90.3282 67.2411 90.5212 67.5145C90.7222 67.7879 90.8227 68.1537 90.8227 68.612C90.8227 68.9015 90.7704 69.1909 90.6659 69.4804C90.5694 69.7618 90.4086 70.015 90.1835 70.2402C89.9584 70.4653 89.6609 70.6502 89.291 70.795C88.9211 70.9317 88.4669 71 87.9282 71H84.9009ZM85.9985 70.4693H87.7473C88.0045 70.4693 88.2458 70.4332 88.4709 70.3608C88.7041 70.2804 88.9051 70.1638 89.0739 70.011C89.2428 69.8583 89.3754 69.6733 89.4719 69.4562C89.5764 69.2392 89.6287 68.9899 89.6287 68.7085C89.6287 68.4512 89.5805 68.206 89.484 67.9728C89.3955 67.7396 89.2548 67.5346 89.0619 67.3577C88.8769 67.1808 88.6397 67.0401 88.3503 66.9356C88.0608 66.8311 87.7191 66.7788 87.3251 66.7788H85.9985V70.4693ZM85.9985 66.2481H87.4457C87.6869 66.2481 87.9121 66.2079 88.1211 66.1275C88.3382 66.0471 88.5272 65.9345 88.688 65.7898C88.8568 65.6451 88.9855 65.4722 89.0739 65.2712C89.1704 65.0702 89.2186 64.8531 89.2186 64.6199C89.2186 64.435 89.1865 64.2501 89.1222 64.0651C89.0578 63.8802 88.9533 63.7154 88.8086 63.5707C88.6719 63.4259 88.491 63.3094 88.2659 63.2209C88.0488 63.1325 87.7834 63.0882 87.4699 63.0882H85.9985V66.2481Z" fill="#D8C7B6"/>
<path d="M97.3188 68.5155H93.1579L92.0966 71H91.5418L95.1118 62.5576H95.7148L99.6465 71H98.4767L97.3188 68.5155ZM97.0656 67.9728L95.1721 63.9084H95.1238L93.3871 67.9728H97.0656Z" fill="#D8C7B6"/>
<path d="M111.17 62.5576H112.279V71H101.461V62.5576H102.558V70.3367H106.321V62.5576H107.419V70.3367H111.17V62.5576Z" fill="#D8C7B6"/>
<path d="M116.268 70.011L121.273 62.5576H122.37V71H121.273V63.4621L116.268 71H115.17V62.5576H116.268V70.011Z" fill="#D8C7B6"/>
<path d="M125.409 62.5576L127.99 65.8742H128.05L130.595 62.5576H131.234L128.351 66.3325L132.006 71H130.643L127.7 67.225H127.652L124.769 71H124.118L127.35 66.7908L124.058 62.5576H125.409Z" fill="#D8C7B6"/>
<path d="M138.118 62.5576L141.134 67.4542H141.182L143.437 62.5576H144.064L140.603 70.0593C140.49 70.2924 140.374 70.4814 140.253 70.6261C140.133 70.7628 140.008 70.8714 139.879 70.9518C139.759 71.0322 139.63 71.0844 139.493 71.1085C139.365 71.1327 139.24 71.1447 139.12 71.1447C138.846 71.1447 138.597 71.1005 138.372 71.0121C138.155 70.9317 137.99 70.8432 137.877 70.7467L138.384 69.6251C138.488 69.7618 138.621 69.8904 138.782 70.011C138.943 70.1316 139.119 70.1919 139.312 70.1919C139.57 70.1919 139.755 70.1316 139.867 70.011C139.988 69.8904 140.088 69.7497 140.169 69.5889L140.603 68.6723L136.828 62.5576H138.118Z" fill="#D8C7B6"/>
<path d="M153.124 69.4442L153.486 69.7698C153.381 69.8904 153.228 70.0311 153.027 70.1919C152.826 70.3527 152.573 70.5055 152.267 70.6502C151.97 70.7869 151.616 70.9035 151.206 71C150.804 71.0965 150.346 71.1447 149.831 71.1447C149.019 71.1447 148.32 71.0201 147.733 70.7709C147.146 70.5136 146.663 70.1799 146.285 69.7698C145.907 69.3517 145.626 68.8773 145.441 68.3467C145.264 67.808 145.176 67.2572 145.176 66.6944C145.176 66.0431 145.288 65.4561 145.514 64.9335C145.739 64.4029 146.056 63.9526 146.466 63.5827C146.876 63.2048 147.367 62.9154 147.938 62.7144C148.517 62.5134 149.156 62.4128 149.855 62.4128C150.338 62.4128 150.768 62.4611 151.146 62.5576C151.524 62.6541 151.853 62.7867 152.135 62.9556C152.416 63.1244 152.649 63.3254 152.834 63.5586C153.027 63.7918 153.184 64.045 153.305 64.3184H152.412C152.356 64.1496 152.255 63.9847 152.111 63.8239C151.974 63.6551 151.793 63.5063 151.568 63.3777C151.351 63.2491 151.098 63.1445 150.808 63.0641C150.527 62.9837 150.213 62.9435 149.867 62.9435C149.361 62.9435 148.89 63.036 148.456 63.2209C148.03 63.4058 147.66 63.6631 147.347 63.9928C147.033 64.3224 146.788 64.7164 146.611 65.1747C146.442 65.625 146.358 66.1235 146.358 66.6702C146.358 67.1848 146.438 67.6793 146.599 68.1537C146.768 68.6281 147.013 69.0462 147.335 69.408C147.656 69.7698 148.058 70.0593 148.541 70.2764C149.023 70.4935 149.578 70.602 150.205 70.602C151.331 70.602 152.304 70.2161 153.124 69.4442Z" fill="#D8C7B6"/>
<path d="M162.546 62.5576V71H161.449V63.2209H156.395V71H155.298V62.5576H162.546Z" fill="#D8C7B6"/>
<path d="M165.438 62.5576H170.89V63.2209H166.536V66.2481H170.275V66.827H166.536V70.3367H170.89V71H165.438V62.5576Z" fill="#D8C7B6"/>
<path d="M172.838 62.5576L175.419 65.8742H175.48L178.024 62.5576H178.664L175.781 66.3325L179.436 71H178.073L175.13 67.225H175.082L172.199 71H171.548L174.78 66.7908L171.488 62.5576H172.838Z" fill="#D8C7B6"/>
<path d="M180.282 66.7788C180.282 66.3205 180.367 65.834 180.536 65.3195C180.713 64.8049 180.986 64.3345 181.356 63.9084C181.726 63.4742 182.196 63.1164 182.767 62.835C183.338 62.5536 184.021 62.4128 184.817 62.4128C185.621 62.4128 186.317 62.5576 186.904 62.847C187.499 63.1284 187.989 63.4862 188.375 63.9204C188.761 64.3546 189.046 64.829 189.231 65.3436C189.416 65.8501 189.509 66.3285 189.509 66.7788C189.509 67.0763 189.465 67.3899 189.376 67.7195C189.296 68.0492 189.171 68.3788 189.002 68.7085C188.841 69.0301 188.632 69.3397 188.375 69.6372C188.118 69.9266 187.812 70.1839 187.458 70.409C187.113 70.6342 186.719 70.8151 186.277 70.9518C185.842 71.0804 185.356 71.1447 184.817 71.1447C184.021 71.1447 183.338 71.004 182.767 70.7226C182.196 70.4331 181.726 70.0713 181.356 69.6372C180.986 69.203 180.713 68.7326 180.536 68.2261C180.367 67.7115 180.282 67.229 180.282 66.7788ZM181.464 66.7788C181.464 67.3416 181.549 67.8602 181.718 68.3346C181.895 68.8009 182.132 69.203 182.429 69.5407C182.735 69.8784 183.093 70.1437 183.503 70.3367C183.913 70.5216 184.359 70.6141 184.841 70.6141C185.316 70.6141 185.762 70.5216 186.18 70.3367C186.606 70.1437 186.976 69.8784 187.29 69.5407C187.611 69.203 187.865 68.8009 188.049 68.3346C188.234 67.8602 188.327 67.3416 188.327 66.7788C188.327 66.216 188.234 65.7014 188.049 65.235C187.865 64.7606 187.611 64.3546 187.29 64.0169C186.976 63.6792 186.606 63.4179 186.18 63.233C185.762 63.04 185.316 62.9435 184.841 62.9435C184.359 62.9435 183.913 63.04 183.503 63.233C183.093 63.4179 182.735 63.6792 182.429 64.0169C182.132 64.3546 181.895 64.7606 181.718 65.235C181.549 65.7014 181.464 66.216 181.464 66.7788Z" fill="#D8C7B6"/>
<path d="M191.562 71V62.5576H194.577C194.995 62.5576 195.357 62.6219 195.663 62.7505C195.976 62.8712 196.229 63.0279 196.422 63.2209C196.623 63.4139 196.772 63.627 196.869 63.8601C196.965 64.0933 197.013 64.3224 197.013 64.5476C197.013 64.8049 196.957 65.0501 196.844 65.2833C196.732 65.5084 196.579 65.7094 196.386 65.8863C196.201 66.0551 195.984 66.1959 195.735 66.3084C195.486 66.413 195.22 66.4652 194.939 66.4652V66.5135C195.116 66.5215 195.349 66.5496 195.638 66.5979C195.928 66.6461 196.209 66.7426 196.483 66.8873C196.756 67.0321 196.989 67.2411 197.182 67.5145C197.383 67.7879 197.484 68.1537 197.484 68.612C197.484 68.9015 197.431 69.1909 197.327 69.4804C197.23 69.7618 197.07 70.015 196.844 70.2402C196.619 70.4653 196.322 70.6502 195.952 70.795C195.582 70.9317 195.128 71 194.589 71H191.562ZM192.659 70.4693H194.408C194.666 70.4693 194.907 70.4332 195.132 70.3608C195.365 70.2804 195.566 70.1638 195.735 70.011C195.904 69.8583 196.036 69.6733 196.133 69.4562C196.237 69.2392 196.29 68.9899 196.29 68.7085C196.29 68.4512 196.241 68.206 196.145 67.9728C196.057 67.7396 195.916 67.5346 195.723 67.3577C195.538 67.1808 195.301 67.0401 195.011 66.9356C194.722 66.8311 194.38 66.7788 193.986 66.7788H192.659V70.4693ZM192.659 66.2481H194.107C194.348 66.2481 194.573 66.2079 194.782 66.1275C194.999 66.0471 195.188 65.9345 195.349 65.7898C195.518 65.6451 195.646 65.4722 195.735 65.2712C195.831 65.0702 195.88 64.8531 195.88 64.6199C195.88 64.435 195.847 64.2501 195.783 64.0651C195.719 63.8802 195.614 63.7154 195.47 63.5707C195.333 63.4259 195.152 63.3094 194.927 63.2209C194.71 63.1325 194.444 63.0882 194.131 63.0882H192.659V66.2481Z" fill="#D8C7B6"/>
</svg>
