<svg width="20" height="24" viewBox="0 0 20 24" fill="none" xmlns="http://www.w3.org/2000/svg">
<path d="M16.0369 23.5251L0.50694 12.8865C0.322609 12.7599 0.191734 12.6227 0.114314 12.4749C0.0368951 12.3272 -0.00120008 12.1689 2.88018e-05 12C2.88018e-05 11.8311 0.0387384 11.6728 0.116158 11.5251C0.193577 11.3773 0.323838 11.2401 0.50694 11.1135L16.0369 0.443272C16.467 0.147757 17.0046 0 17.6498 0C18.2949 0 18.8479 0.158311 19.3088 0.474934C19.7696 0.791557 20 1.16095 20 1.58311C20 2.00528 19.7696 2.37467 19.3088 2.69129L5.76039 12L19.3088 21.3087C19.7389 21.6042 19.9539 21.9685 19.9539 22.4017C19.9539 22.8348 19.7235 23.2093 19.2627 23.5251C18.8018 23.8417 18.2642 24 17.6498 24C17.0353 24 16.4977 23.8417 16.0369 23.5251Z" fill="white"/>
</svg>
