<svg width="24" height="20" viewBox="0 0 24 20" fill="none" xmlns="http://www.w3.org/2000/svg">
<path d="M23.5251 3.96313L12.8865 19.4931C12.7599 19.6774 12.6227 19.8083 12.4749 19.8857C12.3272 19.9631 12.1689 20.0012 12 20C11.8311 20 11.6728 19.9613 11.5251 19.8838C11.3773 19.8064 11.2401 19.6762 11.1135 19.4931L0.443272 3.96313C0.147757 3.53302 0 2.99539 0 2.35023C0 1.70506 0.158311 1.15207 0.474934 0.691242C0.791557 0.230413 1.16095 0 1.58311 0C2.00528 0 2.37467 0.230413 2.69129 0.691242L12 14.2396L21.3087 0.691242C21.6042 0.261135 21.9685 0.0460815 22.4017 0.0460815C22.8348 0.0460815 23.2093 0.276497 23.5251 0.737326C23.8417 1.19815 24 1.73579 24 2.35023C24 2.96466 23.8417 3.5023 23.5251 3.96313Z" fill="white"/>
</svg>
