<svg width="24" height="20" viewBox="0 0 24 20" fill="none" xmlns="http://www.w3.org/2000/svg">
<path d="M0.474934 16.0369L11.1135 0.50694C11.2401 0.322609 11.3773 0.191734 11.5251 0.114314C11.6728 0.0368951 11.8311 -0.00120008 12 2.88018e-05C12.1689 2.88018e-05 12.3272 0.0387384 12.4749 0.116158C12.6227 0.193577 12.7599 0.323838 12.8865 0.50694L23.5567 16.0369C23.8522 16.467 24 17.0046 24 17.6498C24 18.2949 23.8417 18.8479 23.5251 19.3088C23.2084 19.7696 22.8391 20 22.4169 20C21.9947 20 21.6253 19.7696 21.3087 19.3088L12 5.76039L2.69129 19.3088C2.39578 19.7389 2.03145 19.9539 1.59831 19.9539C1.16517 19.9539 0.790713 19.7235 0.474934 19.2627C0.158312 18.8018 3.09284e-07 18.2642 3.09284e-07 17.6498C3.09284e-07 17.0353 0.158312 16.4977 0.474934 16.0369Z" fill="black"/>
</svg>
