<svg width="20" height="24" viewBox="0 0 20 24" fill="none" xmlns="http://www.w3.org/2000/svg">
<path d="M3.96313 0.474934L19.4931 11.1135C19.6774 11.2401 19.8083 11.3773 19.8857 11.5251C19.9631 11.6728 20.0012 11.8311 20 12C20 12.1689 19.9613 12.3272 19.8838 12.4749C19.8064 12.6227 19.6762 12.7599 19.4931 12.8865L3.96313 23.5567C3.53302 23.8522 2.99539 24 2.35023 24C1.70506 24 1.15207 23.8417 0.691242 23.5251C0.230413 23.2084 0 22.8391 0 22.4169C0 21.9947 0.230413 21.6253 0.691242 21.3087L14.2396 12L0.691242 2.69129C0.261135 2.39578 0.0460815 2.03145 0.0460815 1.59831C0.0460815 1.16517 0.276497 0.790712 0.737326 0.474934C1.19815 0.158312 1.73579 0 2.35023 0C2.96466 0 3.5023 0.158312 3.96313 0.474934Z" fill="white"/>
</svg>
