<svg width="40" height="40" viewBox="0 0 40 40" fill="none" xmlns="http://www.w3.org/2000/svg">
<path d="M26.767 24.1987C25.9175 23.3601 24.8571 23.3601 24.0131 24.1987C23.3692 24.8371 22.7254 25.4755 22.0924 26.1248C21.9192 26.3033 21.7731 26.3412 21.5621 26.2222C21.1455 25.9949 20.7019 25.811 20.3015 25.5621C18.4349 24.388 16.8713 22.8785 15.4862 21.1796C14.7991 20.3356 14.1877 19.4321 13.7603 18.4149C13.6737 18.2093 13.6899 18.074 13.8576 17.9063C14.5015 17.2841 15.1291 16.6457 15.7621 16.0073C16.644 15.1199 16.644 14.0811 15.7567 13.1884C15.2535 12.6798 14.7504 12.1821 14.2472 11.6735C13.7278 11.1541 13.2138 10.6293 12.689 10.1153C11.8396 9.28747 10.7791 9.28747 9.93507 10.1207C9.28582 10.7591 8.66362 11.4138 8.00354 12.0414C7.39216 12.6203 7.08377 13.3291 7.01884 14.1569C6.91604 15.5041 7.24608 16.7755 7.71138 18.0145C8.66362 20.5791 10.1136 22.8569 11.872 24.9453C14.2472 27.7696 17.0823 30.0041 20.3989 31.6164C21.8922 32.3414 23.4396 32.8987 25.1222 32.9907C26.28 33.0556 27.2864 32.7634 28.0925 31.8599C28.6444 31.2431 29.2666 30.6804 29.8509 30.0907C30.7166 29.2142 30.722 28.1537 29.8618 27.288C28.8338 26.2546 27.8004 25.2267 26.767 24.1987Z" fill="white"/>
<path d="M25.7339 19.8882L27.7304 19.5473C27.4166 17.7132 26.5509 16.0522 25.2361 14.732C23.8457 13.3415 22.0873 12.465 20.1503 12.1945L19.869 14.2018C21.3677 14.4128 22.7311 15.0891 23.8078 16.1658C24.825 17.1829 25.4904 18.4706 25.7339 19.8882Z" fill="white"/>
<path d="M28.8556 11.2093C26.5507 8.90448 23.6345 7.44907 20.4153 7L20.134 9.00728C22.9149 9.39683 25.4362 10.6575 27.4272 12.6431C29.3155 14.5313 30.5545 16.9174 31.0035 19.5414L33 19.2006C32.4752 16.1599 31.0414 13.4006 28.8556 11.2093Z" fill="white"/>
<rect x="0.5" y="0.5" width="39" height="39" rx="7.5" stroke="white"/>
</svg>
