<svg width="24" height="24" viewBox="0 0 24 24" fill="none" xmlns="http://www.w3.org/2000/svg">
<path d="M22.2051 5.54982C18.615 -0.000183463 11.2852 -1.65018 5.60089 1.79982C0.0661373 5.24982 -1.72892 12.7498 1.86119 18.2998L2.16037 18.7498L0.963664 23.2498L5.4513 22.0498L5.90006 22.3498C7.8447 23.3998 9.93893 23.9998 12.0332 23.9998C14.277 23.9998 16.5208 23.3998 18.4654 22.1998C24.0002 18.5998 25.6456 11.2498 22.2051 5.54982ZM19.0638 17.0998C18.4654 17.9998 17.7175 18.5998 16.6704 18.7498C16.072 18.7498 15.3241 19.0498 12.3323 17.8498C9.78934 16.6498 7.69511 14.6998 6.19924 12.4498C5.30171 11.3998 4.85295 10.0498 4.70336 8.69982C4.70336 7.49982 5.15212 6.44982 5.90006 5.69982C6.19924 5.39982 6.49841 5.24982 6.79759 5.24982H7.54553C7.8447 5.24982 8.14388 5.24982 8.29347 5.84982C8.59264 6.59982 9.34058 8.39982 9.34058 8.54982C9.49017 8.69982 9.49017 8.99982 9.34058 9.14982C9.49017 9.44982 9.34058 9.74982 9.19099 9.89982C9.04141 10.0498 8.89182 10.3498 8.74223 10.4998C8.44305 10.6498 8.29347 10.9498 8.44305 11.2498C9.0414 12.1498 9.78934 13.0498 10.5373 13.7998C11.4348 14.5498 12.3323 15.1498 13.3794 15.5998C13.6786 15.7498 13.9778 15.7498 14.1274 15.4498C14.277 15.1498 15.0249 14.3998 15.3241 14.0998C15.6233 13.7998 15.7729 13.7998 16.072 13.9498L18.4654 15.1498C18.7646 15.2998 19.0638 15.4498 19.2134 15.5998C19.363 16.0498 19.363 16.6498 19.0638 17.0998Z" fill="#E8C87A"/>
</svg>
