<svg width="40" height="40" viewBox="0 0 40 40" fill="none" xmlns="http://www.w3.org/2000/svg">
<path d="M20 14C18.8133 14 17.6533 14.3519 16.6666 15.0112C15.6799 15.6705 14.9108 16.6075 14.4567 17.7039C14.0026 18.8003 13.8838 20.0067 14.1153 21.1705C14.3468 22.3344 14.9182 23.4035 15.7574 24.2426C16.5965 25.0818 17.6656 25.6532 18.8295 25.8847C19.9933 26.1162 21.1997 25.9974 22.2961 25.5433C23.3925 25.0892 24.3295 24.3201 24.9888 23.3334C25.6481 22.3467 26 21.1867 26 20C25.9983 18.4092 25.3657 16.884 24.2408 15.7592C23.116 14.6343 21.5908 14.0017 20 14ZM20 24C19.2089 24 18.4355 23.7654 17.7777 23.3259C17.1199 22.8864 16.6072 22.2616 16.3045 21.5307C16.0017 20.7998 15.9225 19.9956 16.0769 19.2196C16.2312 18.4437 16.6122 17.731 17.1716 17.1716C17.731 16.6122 18.4437 16.2312 19.2196 16.0769C19.9956 15.9225 20.7998 16.0017 21.5307 16.3045C22.2616 16.6072 22.8864 17.1199 23.3259 17.7777C23.7654 18.4355 24 19.2089 24 20C24 21.0609 23.5786 22.0783 22.8284 22.8284C22.0783 23.5786 21.0609 24 20 24ZM26 7H14C12.1441 7.00199 10.3648 7.74012 9.05245 9.05245C7.74012 10.3648 7.00199 12.1441 7 14V26C7.00199 27.8559 7.74012 29.6352 9.05245 30.9476C10.3648 32.2599 12.1441 32.998 14 33H26C27.8559 32.998 29.6352 32.2599 30.9476 30.9476C32.2599 29.6352 32.998 27.8559 33 26V14C32.998 12.1441 32.2599 10.3648 30.9476 9.05245C29.6352 7.74012 27.8559 7.00199 26 7ZM31 26C31 27.3261 30.4732 28.5979 29.5355 29.5355C28.5979 30.4732 27.3261 31 26 31H14C12.6739 31 11.4021 30.4732 10.4645 29.5355C9.52678 28.5979 9 27.3261 9 26V14C9 12.6739 9.52678 11.4021 10.4645 10.4645C11.4021 9.52678 12.6739 9 14 9H26C27.3261 9 28.5979 9.52678 29.5355 10.4645C30.4732 11.4021 31 12.6739 31 14V26ZM28 13.5C28 13.7967 27.912 14.0867 27.7472 14.3334C27.5824 14.58 27.3481 14.7723 27.074 14.8858C26.7999 14.9994 26.4983 15.0291 26.2074 14.9712C25.9164 14.9133 25.6491 14.7704 25.4393 14.5607C25.2296 14.3509 25.0867 14.0836 25.0288 13.7926C24.9709 13.5017 25.0007 13.2001 25.1142 12.926C25.2277 12.6519 25.42 12.4176 25.6666 12.2528C25.9133 12.088 26.2033 12 26.5 12C26.8978 12 27.2794 12.158 27.5607 12.4393C27.842 12.7206 28 13.1022 28 13.5Z" fill="white"/>
<rect x="0.5" y="0.5" width="39" height="39" rx="7.5" stroke="white"/>
</svg>
