<svg width="133" height="42" viewBox="0 0 133 42" fill="none" xmlns="http://www.w3.org/2000/svg">
<path d="M20 15C18.8133 15 17.6533 15.3519 16.6666 16.0112C15.6799 16.6705 14.9108 17.6075 14.4567 18.7039C14.0026 19.8003 13.8838 21.0067 14.1153 22.1705C14.3468 23.3344 14.9182 24.4035 15.7574 25.2426C16.5965 26.0818 17.6656 26.6532 18.8295 26.8847C19.9933 27.1162 21.1997 26.9974 22.2961 26.5433C23.3925 26.0892 24.3295 25.3201 24.9888 24.3334C25.6481 23.3467 26 22.1867 26 21C25.9983 19.4092 25.3657 17.884 24.2408 16.7592C23.116 15.6343 21.5908 15.0017 20 15ZM20 25C19.2089 25 18.4355 24.7654 17.7777 24.3259C17.1199 23.8864 16.6072 23.2616 16.3045 22.5307C16.0017 21.7998 15.9225 20.9956 16.0769 20.2196C16.2312 19.4437 16.6122 18.731 17.1716 18.1716C17.731 17.6122 18.4437 17.2312 19.2196 17.0769C19.9956 16.9225 20.7998 17.0017 21.5307 17.3045C22.2616 17.6072 22.8864 18.1199 23.3259 18.7777C23.7654 19.4355 24 20.2089 24 21C24 22.0609 23.5786 23.0783 22.8284 23.8284C22.0783 24.5786 21.0609 25 20 25ZM26 8H14C12.1441 8.00199 10.3648 8.74012 9.05245 10.0524C7.74012 11.3648 7.00199 13.1441 7 15V27C7.00199 28.8559 7.74012 30.6352 9.05245 31.9476C10.3648 33.2599 12.1441 33.998 14 34H26C27.8559 33.998 29.6352 33.2599 30.9476 31.9476C32.2599 30.6352 32.998 28.8559 33 27V15C32.998 13.1441 32.2599 11.3648 30.9476 10.0524C29.6352 8.74012 27.8559 8.00199 26 8ZM31 27C31 28.3261 30.4732 29.5979 29.5355 30.5355C28.5979 31.4732 27.3261 32 26 32H14C12.6739 32 11.4021 31.4732 10.4645 30.5355C9.52678 29.5979 9 28.3261 9 27V15C9 13.6739 9.52678 12.4021 10.4645 11.4645C11.4021 10.5268 12.6739 10 14 10H26C27.3261 10 28.5979 10.5268 29.5355 11.4645C30.4732 12.4021 31 13.6739 31 15V27ZM28 14.5C28 14.7967 27.912 15.0867 27.7472 15.3334C27.5824 15.58 27.3481 15.7723 27.074 15.8858C26.7999 15.9994 26.4983 16.0291 26.2074 15.9712C25.9164 15.9133 25.6491 15.7704 25.4393 15.5607C25.2296 15.3509 25.0867 15.0836 25.0288 14.7926C24.9709 14.5017 25.0007 14.2001 25.1142 13.926C25.2277 13.6519 25.42 13.4176 25.6666 13.2528C25.9133 13.088 26.2033 13 26.5 13C26.8978 13 27.2794 13.158 27.5607 13.4393C27.842 13.7206 28 14.1022 28 14.5Z" fill="white"/>
<rect x="0.5" y="1.5" width="39" height="39" rx="7.5" stroke="white"/>
<path d="M51.04 15H49.68V3.8H51.056L55.264 9.544L59.296 3.8H60.592V15H59.232V5.944L55.264 11.512H55.056L51.04 5.992V15ZM65.7376 15H63.4176V7.8H64.6976V9.96H65.8816C66.863 9.96 67.583 10.184 68.0416 10.632C68.5003 11.0693 68.7296 11.672 68.7296 12.44C68.7296 13.1653 68.4896 13.7733 68.0096 14.264C67.551 14.7547 66.7936 15 65.7376 15ZM71.3856 15H70.1056V7.8H71.3856V15ZM65.6416 11.16H64.6976V13.8H65.6256C66.2336 13.8 66.6763 13.6933 66.9536 13.48C67.231 13.2667 67.3696 12.936 67.3696 12.488C67.3696 11.6027 66.7936 11.16 65.6416 11.16ZM77.277 15V7.8C77.3303 7.8 77.405 7.8 77.501 7.8C77.597 7.78933 77.7357 7.784 77.917 7.784C78.0983 7.77333 78.2637 7.768 78.413 7.768C79.2023 7.74667 79.693 7.736 79.885 7.736C81.9543 7.736 82.989 8.35467 82.989 9.592C82.989 10.0187 82.8557 10.3867 82.589 10.696C82.3223 10.9947 81.9757 11.176 81.549 11.24V11.272C82.669 11.4747 83.229 12.04 83.229 12.968C83.229 14.3653 82.125 15.064 79.917 15.064C79.8103 15.064 79.341 15.0533 78.509 15.032C78.349 15.032 78.173 15.0267 77.981 15.016C77.789 15.016 77.6397 15.0107 77.533 15C77.4263 15 77.341 15 77.277 15ZM80.093 11.768H78.557V13.976C79.325 14.008 79.8157 14.024 80.029 14.024C81.2557 14.024 81.869 13.64 81.869 12.872C81.869 12.136 81.277 11.768 80.093 11.768ZM79.981 8.776C79.6717 8.776 79.197 8.792 78.557 8.824V10.968H80.173C80.6103 10.968 80.9623 10.8667 81.229 10.664C81.4957 10.4613 81.629 10.1893 81.629 9.848C81.629 9.13333 81.0797 8.776 79.981 8.776ZM94.313 13.032L94.921 13.96C94.3023 14.76 93.3797 15.16 92.153 15.16C91.001 15.16 90.0677 14.8187 89.353 14.136C88.649 13.4533 88.297 12.5413 88.297 11.4C88.297 10.344 88.6437 9.45333 89.337 8.728C90.0303 8.00267 90.8997 7.64 91.945 7.64C93.2037 7.64 94.1477 7.95467 94.777 8.584L94.185 9.592C93.6303 9.09067 92.9423 8.84 92.121 8.84C91.449 8.84 90.8677 9.08533 90.377 9.576C89.897 10.056 89.657 10.664 89.657 11.4C89.657 12.1787 89.9023 12.7973 90.393 13.256C90.8943 13.7253 91.513 13.96 92.249 13.96C93.081 13.96 93.769 13.6507 94.313 13.032ZM101.879 13.208L102.279 14.216C101.586 14.8453 100.684 15.16 99.5749 15.16C98.4015 15.16 97.4682 14.8187 96.7749 14.136C96.0709 13.4533 95.7189 12.5413 95.7189 11.4C95.7189 10.3227 96.0495 9.42667 96.7109 8.712C97.3615 7.99733 98.2682 7.64 99.4309 7.64C100.391 7.64 101.186 7.94933 101.815 8.568C102.455 9.176 102.775 9.96533 102.775 10.936C102.775 11.2453 102.748 11.5333 102.695 11.8H97.1589C97.2122 12.472 97.4629 13 97.9109 13.384C98.3695 13.768 98.9562 13.96 99.6709 13.96C100.61 13.96 101.346 13.7093 101.879 13.208ZM99.3669 8.84C98.7375 8.84 98.2149 9.016 97.7989 9.368C97.3935 9.72 97.1535 10.184 97.0789 10.76H101.447C101.415 10.1627 101.212 9.69333 100.839 9.352C100.476 9.01067 99.9855 8.84 99.3669 8.84ZM106.099 9.08H103.459V7.8H110.019V9.08H107.379V15H106.099V9.08ZM116.858 9.64L112.698 15H111.418V7.8H112.698V13.16L116.858 7.8H118.138V15H116.858V9.64ZM54.688 34.032L55.296 34.96C54.6773 35.76 53.7547 36.16 52.528 36.16C51.376 36.16 50.4427 35.8187 49.728 35.136C49.024 34.4533 48.672 33.5413 48.672 32.4C48.672 31.344 49.0187 30.4533 49.712 29.728C50.4053 29.0027 51.2747 28.64 52.32 28.64C53.5787 28.64 54.5227 28.9547 55.152 29.584L54.56 30.592C54.0053 30.0907 53.3173 29.84 52.496 29.84C51.824 29.84 51.2427 30.0853 50.752 30.576C50.272 31.056 50.032 31.664 50.032 32.4C50.032 33.1787 50.2773 33.7973 50.768 34.256C51.2693 34.7253 51.888 34.96 52.624 34.96C53.456 34.96 54.144 34.6507 54.688 34.032ZM57.1499 35.104C56.4459 34.3787 56.0939 33.4773 56.0939 32.4C56.0939 31.312 56.4459 30.416 57.1499 29.712C57.8645 28.9973 58.7925 28.64 59.9339 28.64C61.0752 28.64 61.9979 28.9973 62.7019 29.712C63.4165 30.416 63.7739 31.312 63.7739 32.4C63.7739 33.488 63.4165 34.3893 62.7019 35.104C61.9979 35.808 61.0752 36.16 59.9339 36.16C58.8032 36.16 57.8752 35.808 57.1499 35.104ZM58.1579 30.56C57.6885 31.0293 57.4539 31.6427 57.4539 32.4C57.4539 33.1573 57.6832 33.7707 58.1419 34.24C58.6112 34.72 59.2085 34.96 59.9339 34.96C60.6592 34.96 61.2512 34.7253 61.7099 34.256C62.1792 33.776 62.4139 33.1573 62.4139 32.4C62.4139 31.664 62.1792 31.0507 61.7099 30.56C61.2512 30.08 60.6592 29.84 59.9339 29.84C59.2085 29.84 58.6165 30.08 58.1579 30.56ZM72.0208 36H65.6208V28.8H66.9008V34.8H70.7408V28.8H72.0208V34.8H73.2208V37.76H72.0208V36ZM80.0451 30.64L75.8851 36H74.6051V28.8H75.8851V34.16L80.0451 28.8H81.3251V36H80.0451V30.64ZM84.036 30.32L83.7 29.296C84.4147 28.8587 85.2147 28.64 86.1 28.64C87.0707 28.64 87.7747 28.88 88.212 29.36C88.6493 29.84 88.868 30.5813 88.868 31.584V36H87.652V35.072C87.0867 35.7653 86.3187 36.112 85.348 36.112C84.6867 36.112 84.1533 35.9147 83.748 35.52C83.3427 35.1147 83.14 34.5707 83.14 33.888C83.14 33.184 83.3907 32.6293 83.892 32.224C84.3933 31.808 85.0493 31.6 85.86 31.6C86.6173 31.6 87.2147 31.7547 87.652 32.064C87.652 31.2533 87.54 30.672 87.316 30.32C87.092 29.968 86.66 29.792 86.02 29.792C85.3693 29.792 84.708 29.968 84.036 30.32ZM85.796 34.96C86.5107 34.96 87.1293 34.6507 87.652 34.032V33.12C87.204 32.8 86.6653 32.64 86.036 32.64C85.5987 32.64 85.2307 32.7467 84.932 32.96C84.644 33.1627 84.5 33.4507 84.5 33.824C84.5 34.176 84.612 34.4533 84.836 34.656C85.0707 34.8587 85.3907 34.96 85.796 34.96ZM97.2194 36H95.9394V30.08H93.4114L93.3314 31.296C93.246 32.288 93.118 33.1147 92.9474 33.776C92.7874 34.4267 92.574 34.9173 92.3074 35.248C92.0514 35.568 91.7794 35.792 91.4914 35.92C91.2034 36.0373 90.8514 36.096 90.4354 36.096L90.3394 34.848C90.4567 34.8587 90.5794 34.8427 90.7074 34.8C90.8354 34.7467 90.974 34.64 91.1234 34.48C91.2834 34.32 91.422 34.1067 91.5394 33.84C91.6674 33.5733 91.7794 33.2 91.8754 32.72C91.982 32.2293 92.0514 31.6693 92.0834 31.04L92.2114 28.8H97.2194V36ZM101.959 36H99.527V28.8H100.807V30.96H102.119C103.1 30.96 103.82 31.184 104.279 31.632C104.738 32.0693 104.967 32.672 104.967 33.44C104.967 34.1653 104.727 34.7733 104.247 35.264C103.767 35.7547 103.004 36 101.959 36ZM101.879 32.16H100.807V34.8H101.863C103.026 34.8 103.607 34.3627 103.607 33.488C103.607 32.6027 103.031 32.16 101.879 32.16ZM113.243 36H111.963V32.96H107.963V36H106.683V28.8H107.963V31.76H111.963V28.8H113.243V36ZM116.134 35.104C115.43 34.3787 115.078 33.4773 115.078 32.4C115.078 31.312 115.43 30.416 116.134 29.712C116.849 28.9973 117.777 28.64 118.918 28.64C120.06 28.64 120.982 28.9973 121.686 29.712C122.401 30.416 122.758 31.312 122.758 32.4C122.758 33.488 122.401 34.3893 121.686 35.104C120.982 35.808 120.06 36.16 118.918 36.16C117.788 36.16 116.86 35.808 116.134 35.104ZM117.142 30.56C116.673 31.0293 116.438 31.6427 116.438 32.4C116.438 33.1573 116.668 33.7707 117.126 34.24C117.596 34.72 118.193 34.96 118.918 34.96C119.644 34.96 120.236 34.7253 120.694 34.256C121.164 33.776 121.398 33.1573 121.398 32.4C121.398 31.664 121.164 31.0507 120.694 30.56C120.236 30.08 119.644 29.84 118.918 29.84C118.193 29.84 117.601 30.08 117.142 30.56ZM130.045 30.64L125.885 36H124.605V28.8H125.885V34.16L130.045 28.8H131.325V36H130.045V30.64ZM125.629 25.12H126.829C126.893 25.9627 127.304 26.384 128.061 26.384C128.776 26.384 129.165 25.9627 129.229 25.12H130.429C130.429 25.7707 130.205 26.3093 129.757 26.736C129.32 27.152 128.754 27.36 128.061 27.36C127.304 27.36 126.706 27.1573 126.269 26.752C125.842 26.336 125.629 25.792 125.629 25.12Z" fill="white"/>
</svg>
