<svg width="40" height="40" viewBox="0 0 40 40" fill="none" xmlns="http://www.w3.org/2000/svg">
<path d="M9.6 30.8C8.885 30.8 8.2727 30.5452 7.7631 30.0356C7.2535 29.526 6.99914 28.9141 7 28.2V12.6C7 11.885 7.2548 11.2727 7.7644 10.7631C8.274 10.2535 8.88587 9.99914 9.6 10H30.4C31.115 10 31.7273 10.2548 32.2369 10.7644C32.7465 11.274 33.0009 11.8859 33 12.6V28.2C33 28.915 32.7452 29.5273 32.2356 30.0369C31.726 30.5465 31.1141 30.8009 30.4 30.8H9.6ZM30.4 15.2L20.6825 21.2775C20.5742 21.3425 20.4602 21.3915 20.3406 21.4244C20.221 21.4573 20.1075 21.4734 20 21.4725C19.8917 21.4725 19.7777 21.4565 19.6581 21.4244C19.5385 21.3923 19.425 21.3434 19.3175 21.2775L9.6 15.2V28.2H30.4V15.2ZM20 19.1L30.4 12.6H9.6L20 19.1ZM9.6 15.525V13.6075V13.64V13.6244V15.525Z" fill="white"/>
<rect x="0.5" y="0.5" width="39" height="39" rx="7.5" stroke="white"/>
</svg>
