<svg width="15" height="19" viewBox="0 0 15 19" fill="none" xmlns="http://www.w3.org/2000/svg">
<path d="M7.46 1C5.7467 1 4.10358 1.68061 2.89209 2.89209C1.68061 4.10358 1 5.7467 1 7.46V7.93077C1.26154 11.4703 4.19949 14.3167 7.46 18C10.8644 14.1554 13.92 11.2436 13.92 7.46C13.92 5.7467 13.2394 4.10358 12.0279 2.89209C10.8164 1.68061 9.1733 1 7.46 1ZM7.46 4.35641C8.07488 4.35641 8.67594 4.5388 9.18714 4.8805C9.69833 5.2222 10.0967 5.70785 10.3318 6.27601C10.5669 6.84417 10.6282 7.46929 10.5079 8.07229C10.3876 8.6753 10.0912 9.22907 9.65611 9.66355C9.22102 10.098 8.66682 10.3937 8.06365 10.5131C7.46048 10.6325 6.83544 10.5704 6.26762 10.3345C5.69979 10.0986 5.2147 9.69954 4.87371 9.18787C4.53273 8.6762 4.35119 8.07488 4.35205 7.46C4.35321 6.63648 4.68116 5.84708 5.26389 5.26517C5.84662 4.68325 6.63648 4.35641 7.46 4.35641Z" stroke="url(#paint0_linear_99_352)" stroke-linecap="round" stroke-linejoin="round"/>
<defs>
<linearGradient id="paint0_linear_99_352" x1="13.92" y1="0.999998" x2="-0.444681" y2="2.32381" gradientUnits="userSpaceOnUse">
<stop stop-color="#F0D17B"/>
<stop offset="1" stop-color="#CFA453"/>
</linearGradient>
</defs>
</svg>
