<svg width="18" height="18" viewBox="0 0 18 18" fill="none" xmlns="http://www.w3.org/2000/svg">
<path fill-rule="evenodd" clip-rule="evenodd" d="M2.25536 7.0486C4.04611 10.947 7.22787 14.0364 11.1774 15.7116L11.1894 15.7166L11.9534 16.0566C12.4253 16.267 12.9552 16.3087 13.4542 16.1744C13.9531 16.0402 14.3907 15.7384 14.6934 15.3196L15.9674 13.5566C16.0048 13.5047 16.0209 13.4404 16.0124 13.3769C16.0038 13.3135 15.9712 13.2557 15.9214 13.2156L13.6974 11.4206C13.6711 11.3994 13.6409 11.3838 13.6084 11.3746C13.576 11.3654 13.542 11.3629 13.5085 11.3672C13.4751 11.3715 13.4429 11.3825 13.4138 11.3996C13.3847 11.4167 13.3594 11.4395 13.3394 11.4666L12.4734 12.6346C12.3713 12.7724 12.2252 12.8711 12.0592 12.9142C11.8933 12.9573 11.7176 12.9423 11.5614 12.8716C8.60241 11.5312 6.2318 9.16055 4.89136 6.2016C4.82067 6.0454 4.80563 5.86968 4.84875 5.70374C4.89188 5.53779 4.99056 5.39163 5.12836 5.2896L6.29536 4.4226C6.32248 4.40256 6.34526 4.37724 6.36234 4.34816C6.37941 4.31909 6.39043 4.28686 6.39473 4.25342C6.39903 4.21997 6.39651 4.186 6.38734 4.15355C6.37817 4.12111 6.36253 4.09085 6.34136 4.0646L4.54736 1.8406C4.50722 1.79073 4.44948 1.75816 4.38603 1.7496C4.32259 1.74105 4.25828 1.75715 4.20636 1.7946L2.43336 3.0746C2.01176 3.37871 1.70846 3.81942 1.57502 4.32184C1.44158 4.82425 1.48622 5.35737 1.70136 5.8306L2.25536 7.0476V7.0486ZM10.5854 17.0896C6.29446 15.2676 2.83796 11.9099 0.89236 7.6736L0.890359 7.6716L0.336359 6.4516C-0.0222207 5.66304 -0.0967321 4.77465 0.125485 3.93737C0.347701 3.10009 0.852939 2.36557 1.55536 1.8586L3.32836 0.578602C3.69149 0.316523 4.14127 0.203627 4.58512 0.263155C5.02898 0.322682 5.43312 0.550103 5.71436 0.898602L7.50936 3.1236C7.65749 3.30718 7.76698 3.5188 7.83125 3.74576C7.89552 3.97272 7.91324 4.21033 7.88335 4.44432C7.85346 4.6783 7.77657 4.90383 7.65731 5.10734C7.53805 5.31086 7.37888 5.48816 7.18936 5.6286L6.51936 6.1246C7.65214 8.32094 9.44102 10.1098 11.6374 11.2426L12.1344 10.5726C12.2748 10.3832 12.452 10.2242 12.6555 10.105C12.8589 9.98585 13.0843 9.90901 13.3182 9.87913C13.552 9.84924 13.7895 9.86692 14.0164 9.9311C14.2433 9.99527 14.4548 10.1046 14.6384 10.2526L16.8634 12.0476C17.2121 12.3289 17.4397 12.7332 17.4993 13.1773C17.5588 13.6214 17.4457 14.0714 17.1834 14.4346L15.9094 16.1986C15.4051 16.8965 14.6759 17.3997 13.8445 17.6235C13.013 17.8473 12.1299 17.7781 11.3434 17.4276L10.5854 17.0896Z" fill="#FCC37E"/>
</svg>
