<svg width="40" height="40" viewBox="0 0 40 40" fill="none" xmlns="http://www.w3.org/2000/svg">
<path d="M28.8777 10.4498C27.6799 9.24593 26.2531 8.29139 24.6807 7.64189C23.1082 6.99239 21.4215 6.66092 19.7189 6.66683C12.5852 6.66683 6.77118 12.4518 6.77118 19.5498C6.77118 21.8248 7.37218 24.0348 8.4958 25.9848L6.66666 32.6668L13.526 30.8728C15.4204 31.8998 17.5501 32.4458 19.7189 32.4458C26.8526 32.4458 32.6667 26.6608 32.6667 19.5628C32.6667 16.1178 31.3209 12.8808 28.8777 10.4498ZM19.7189 30.2618C17.7852 30.2618 15.8908 29.7418 14.2315 28.7668L13.8395 28.5328L9.76314 29.5988L10.8476 25.6468L10.5863 25.2438C9.51195 23.5369 8.94151 21.5638 8.94002 19.5498C8.94002 13.6478 13.7742 8.83783 19.7059 8.83783C22.5802 8.83783 25.2847 9.95583 27.3099 11.9838C28.3126 12.977 29.1073 14.1583 29.6478 15.4593C30.1883 16.7603 30.4639 18.1551 30.4586 19.5628C30.4847 25.4648 25.6506 30.2618 19.7189 30.2618ZM25.6244 22.2538C25.2978 22.0978 23.7038 21.3178 23.4164 21.2008C23.1159 21.0968 22.9069 21.0448 22.6847 21.3568C22.4626 21.6818 21.8486 22.4098 21.6657 22.6178C21.4827 22.8388 21.2868 22.8648 20.9601 22.6958C20.6335 22.5398 19.5883 22.1888 18.3601 21.0968C17.3933 20.2388 16.7531 19.1858 16.5571 18.8608C16.3742 18.5358 16.531 18.3668 16.7008 18.1978C16.8445 18.0548 17.0275 17.8208 17.1842 17.6388C17.341 17.4568 17.4064 17.3138 17.5109 17.1058C17.6154 16.8848 17.5631 16.7028 17.4847 16.5468C17.4064 16.3908 16.7531 14.8048 16.4918 14.1548C16.2305 13.5308 15.9561 13.6088 15.7601 13.5958H15.133C14.9109 13.5958 14.5712 13.6738 14.2707 13.9988C13.9832 14.3238 13.1471 15.1038 13.1471 16.6898C13.1471 18.2758 14.3099 19.8098 14.4667 20.0178C14.6234 20.2388 16.7531 23.4888 19.9933 24.8798C20.7641 25.2178 21.3651 25.4128 21.8355 25.5558C22.6064 25.8028 23.3119 25.7638 23.8737 25.6858C24.5008 25.5948 25.7943 24.9058 26.0556 24.1518C26.33 23.3978 26.33 22.7608 26.2385 22.6178C26.1471 22.4748 25.9511 22.4098 25.6244 22.2538Z" fill="white"/>
<rect x="0.5" y="0.5" width="39" height="39" rx="7.5" stroke="white"/>
</svg>
