<svg width="171" height="58" viewBox="0 0 171 58" fill="none" xmlns="http://www.w3.org/2000/svg">
<path fill-rule="evenodd" clip-rule="evenodd" d="M124.923 55.2049C125.012 55.0958 125.095 54.9288 125.544 54.8187C125.544 54.8187 140.81 49.5855 161.115 50.6323C161.115 50.6323 162.268 50.5892 161.956 51.098C161.772 51.3967 161.43 51.4154 160.779 51.4509C160.779 51.4509 160.558 51.4842 159.694 51.4752C159.694 51.4752 161.77 52.2889 153.573 52.1191C153.573 52.1191 154.297 52.8651 151.282 52.6498C151.282 52.6498 142.876 52.2629 125.884 55.3726C125.884 55.3726 124.548 55.6633 124.923 55.2049Z" fill="#FFFFFE"/>
<path fill-rule="evenodd" clip-rule="evenodd" d="M169.877 48.1966C169.877 48.1966 172.254 50.1759 169.305 50.0738C169.305 50.0738 168.732 50.1179 168.381 48.9266C168.381 48.9266 167.367 46.5896 167.441 45.7054C167.341 45.8183 166.779 46.5014 166.459 47.2551C166.273 47.693 166.197 47.8441 165.931 48.2626C165.785 48.4706 165.646 48.6599 165.515 48.7801C164.214 49.9995 164.087 48.4425 164.087 48.4425C163.819 47.1161 164.493 44.9872 164.493 44.9872C164.983 43.5167 165.701 44.122 165.701 44.122C166.701 44.3856 166.298 45.3567 166.298 45.3567C166.084 46.0975 165.893 45.936 165.893 45.936C165.646 46.1013 165.578 46.4549 165.561 46.6803C165.561 46.6803 165.469 47.5023 165.833 46.8713C166.108 46.31 166.637 45.3734 167.023 45.0736C167.023 45.0736 167.593 44.4631 167.925 44.9653C167.925 44.9653 169.359 47.8747 169.877 48.1966ZM129.23 54.4662C129.839 55.3223 130.305 55.9273 130.178 56.0405C129.764 56.4027 127.9 54.9343 127.9 54.9343C124.659 52.2208 123.226 48.762 122.913 47.9219C122.866 47.7996 122.958 47.6906 122.958 47.6906C123.068 47.5662 123.246 47.4961 123.715 47.4443C123.713 47.4443 123.717 47.445 123.717 47.445C123.467 47.3238 123.391 47.2922 123.413 47.2096C123.46 47.0741 123.914 47.0776 123.914 47.0776C124.273 47.0616 124.533 47.0397 124.533 47.0397C125.058 46.9824 125.324 46.9331 125.324 46.9331C126.444 46.7529 126.882 46.2621 126.882 46.2621C127.989 45.1309 126.211 43.9963 126.211 43.9963C121.708 41.3846 118.079 42.6224 118.079 42.6224C117.882 42.6793 117.732 42.6807 117.516 42.6098C117.043 42.4504 117.882 41.7756 117.882 41.7756C120.118 39.9075 121.29 40.4673 121.29 40.4673C125.63 40.7577 127.54 43.0485 127.54 43.0485C129.052 44.6638 128.66 45.9513 128.456 46.3257C127.716 47.693 125.963 47.7264 125.963 47.7264C125.69 47.7427 125.451 47.7496 125.239 47.751C125.441 47.982 125.588 48.3873 125.588 48.3873C125.925 49.4528 129.23 54.4662 129.23 54.4662ZM123.399 43.492C123.643 43.9407 123.317 44.6537 123.317 44.6537C121.911 47.5572 120.153 54.4137 119.801 55.813L119.809 55.8106C119.809 55.8106 119.8 55.8321 119.788 55.871C119.755 55.9971 119.739 56.0641 119.739 56.0641C119.716 56.168 119.69 56.2614 119.665 56.3479C119.627 56.5625 119.598 56.833 119.605 57.1408L119.6 57.1394C119.612 57.5131 119.596 57.8916 119.485 57.943C119.169 58.0889 119.006 57.6624 118.918 57.197C118.608 57.1234 118.353 56.7188 118.353 56.7188C117.214 55.9474 118.066 53.8038 118.066 53.8038C118.84 50.7014 122.678 44.1557 122.678 44.1557C123.129 43.4239 123.315 43.3357 123.399 43.492ZM132.244 49.5692C132.148 49.7241 132.057 49.8991 131.809 50.0575C131.809 50.0575 130.541 50.8413 130.585 49.7355C130.585 49.7355 130.628 49.1215 130.836 48.5505C130.836 48.5505 131.422 47.0522 132.326 46.1788C132.41 46.0947 132.483 46.086 132.528 46.1499C132.655 46.3232 132.676 46.5219 132.772 46.6855C132.798 46.7289 132.825 46.773 132.856 46.8164C132.747 47.3777 132.469 48.4432 132.421 49.2489C132.388 49.3615 132.308 49.4639 132.244 49.5692ZM135.587 48.8766C135.587 48.8766 135.582 48.8398 135.549 48.8106C135.465 48.7519 135.054 48.9405 134.647 49.1882C134.581 49.2267 134.524 49.2607 134.467 49.291C134.319 49.3847 134.174 49.4789 134.116 49.5296C134.116 49.5296 133.852 49.7404 133.881 49.2656C133.881 49.2594 133.882 49.2541 133.883 49.2472C133.887 49.142 133.908 49.0083 133.914 48.8641C133.914 48.8641 134.274 47.4131 134.429 47.0064C134.429 47.0064 134.515 46.624 134.649 46.1888C134.649 46.1888 135.261 45.5446 134.137 45.3365C134.137 45.3365 133.597 44.0001 133.018 46.1051C133.018 46.1041 133.018 46.1041 133.018 46.1041C132.978 45.8874 132.781 45.554 132.479 45.422C132.418 45.3873 132.33 45.3619 132.212 45.3504C132.168 45.3452 132.138 45.3591 132.039 45.3452C132.039 45.3452 131.498 45.157 130.921 45.8874C130.306 46.5702 128.512 48.7415 128.923 50.5597C128.923 50.5597 129.144 51.4995 129.97 51.496C129.97 51.496 131.067 51.5075 131.896 50.7153C131.896 50.7153 132.143 50.494 132.41 50.1658C132.42 50.2773 132.438 50.4003 132.469 50.5218C132.475 50.5458 132.48 50.5687 132.485 50.5916C132.485 50.5916 132.517 50.8017 132.688 50.9625C132.814 51.0785 133.017 51.1678 133.338 51.124C133.371 51.1167 133.405 51.1091 133.44 51.098C133.44 51.098 134.599 50.8146 134.571 50.3176C134.557 50.0717 134.645 50.0238 134.645 50.0238C134.645 50.0238 134.718 49.9818 134.693 49.8956C134.693 49.8956 135.618 49.2708 135.587 48.8766ZM155.633 45.0879C156.15 45.4532 157.016 46.2593 156.873 47.1016C156.873 47.1016 156.623 48.9999 153.513 48.9343C153.513 48.9343 153.175 48.9162 153.168 48.704C153.169 48.5481 153.234 48.4241 153.5 48.3209C153.5 48.3209 155.523 47.6618 154.197 45.2063C154.197 45.2063 153.697 45.5977 152.996 46.1485C152.996 46.1485 152.506 46.6935 152.541 45.9186C152.541 45.9186 152.584 45.4904 152.766 45.3251C152.766 45.3251 153.893 44.653 154.269 43.6035C154.455 42.9099 155.461 42.3244 155.558 42.9078C155.602 43.1714 155.303 43.3343 155.155 43.5215C154.819 43.9473 155.251 44.8444 155.633 45.0879ZM160.143 43.6674C160.685 42.944 161.065 43.2704 161.065 43.2704C161.116 43.2996 161.224 43.2649 161.271 43.261C161.989 43.2065 161.398 43.9213 161.398 43.9213C160.791 44.7524 160.242 46.3097 160.242 46.3097C160.102 46.6608 159.969 47.229 159.969 47.229C159.749 48.173 160.735 47.5051 160.735 47.5051C160.876 47.4054 161.005 47.2617 161.072 47.1984C161.185 47.0908 161.283 47.0776 161.283 47.0776C161.489 47.0484 161.139 45.9672 161.139 45.9672C160.988 45.539 161.016 45.5199 161.016 45.5199C160.92 44.9944 161.209 44.8607 161.209 44.8607C161.517 44.6708 161.765 45.1674 161.765 45.1674C162.041 45.5911 162.285 46.7063 162.285 46.7063C162.52 47.6944 161.787 47.6159 161.787 47.6159C161.482 47.677 160.963 48.199 160.963 48.199C160.152 48.8763 159.024 48.9419 159.024 48.9419C157.902 48.9822 157.992 47.9851 157.992 47.9851C157.984 46.9071 160.143 43.6674 160.143 43.6674ZM147.229 41.1216C147.197 41.4172 147.041 41.6645 146.828 41.794C146.524 42.026 145.896 42.4216 145.693 42.3681C145.487 42.3136 145.718 41.6593 145.73 41.4749C145.743 41.2675 145.742 41.1157 145.784 40.9247C145.849 40.4777 146.204 40.1547 146.593 40.1957C146.994 40.2388 147.279 40.6531 147.229 41.1216ZM149.942 44.0348C149.942 44.0348 151.773 46.002 151.698 47.3648C151.698 47.3648 151.449 49.2621 148.337 49.1982C148.337 49.1982 147.569 49.0822 148.325 48.5849C148.325 48.5849 150.347 47.9233 149.023 45.4703C149.023 45.4703 147.771 46.9536 146.942 47.7753L146.948 47.7816C144.578 50.1158 144.112 49.2594 144.112 49.2594C143.209 47.9559 143.871 45.1032 143.871 45.1032C144.22 43.5945 144.993 44.1286 144.993 44.1286C146.125 44.3137 145.701 45.3004 145.701 45.3004C145.557 46.0579 145.374 45.9752 145.374 45.9752C145.026 46.2579 144.952 47.5075 144.952 47.5075C145.093 48.1959 144.486 49.1534 146.24 47.6159C146.656 47.1943 148.757 44.8073 149.093 43.8667C149.093 43.8667 149.443 42.9516 149.942 44.0348ZM138.24 48.7686C138.24 48.7686 138.006 48.6127 138.021 47.909C138.021 47.909 138.087 46.6841 138.91 45.704C138.91 45.704 139.141 45.4098 139.327 45.3758C139.389 45.3633 139.492 45.4543 139.537 45.8287C139.549 45.9207 139.287 45.9398 139.383 46.2326C139.383 46.2326 139.821 47.352 140.743 46.847C140.705 47.0765 140.664 47.3075 140.62 47.5405C140.138 48.2133 139.128 49.3788 138.24 48.7686ZM142.166 38.2758C142.166 38.2758 141.154 36.9894 141.325 38.472C141.325 38.472 141.463 41.5676 140.957 45.4178C140.9 45.2685 140.821 45.1157 140.715 44.9653C140.715 44.9653 139.833 43.7789 138.846 44.1071C138.846 44.1071 137.585 44.5075 136.854 46.4295C136.854 46.4295 136.339 47.7573 136.484 48.7568C136.484 48.7568 136.436 51.3835 139.603 49.5271C139.603 49.5271 139.939 49.3215 140.331 48.9187C140.255 49.2469 140.131 49.4615 140.119 49.7984C140.119 49.7984 140.006 50.4919 140.321 50.6666C140.44 50.7337 140.57 50.642 140.848 49.9675C140.848 49.9675 143.099 44.1363 143.22 41.7291C143.22 41.7291 144.012 40.534 142.166 38.2758Z" fill="#FFFFFE"/>
<path fill-rule="evenodd" clip-rule="evenodd" d="M163.336 50.7535C163.957 50.7917 164.654 50.8007 165.623 50.8952C166.124 50.9445 166.899 50.9445 167.01 51.273C167.111 51.5759 166.732 51.8857 166.056 52.0184C165.713 52.0857 165.498 52.141 165.189 52.1298C164.824 52.1177 164.041 52.1458 164.02 51.7214C164.003 51.4561 163.491 51.4585 163.15 51.4446C162.467 51.4165 162.536 51.2227 162.687 50.9862C162.774 50.8413 162.961 50.7497 163.336 50.7535Z" fill="#FFFFFE"/>
<path fill-rule="evenodd" clip-rule="evenodd" d="M39.4177 19.3998C35.2322 20.259 29.3556 20.1618 26.4238 23.208C26.4245 23.1594 26.4262 23.1111 26.4262 23.0621C26.4262 21.1707 26.1919 19.3011 25.7061 17.5691H33.4362C33.8291 15.3908 35.2996 14.352 37.6035 14.352C39.3193 14.352 41.6232 15.0949 41.6232 17.0253C41.6232 18.6083 40.8387 19.1028 39.4177 19.3998ZM36.4271 30.8814C34.564 30.8814 32.9462 30.0398 32.9462 27.9623C32.9462 25.9319 34.5148 25.14 36.3776 24.6958C38.1922 24.1992 40.3488 24.0523 41.5258 23.3094C41.7223 28.6041 40.398 30.8814 36.4271 30.8814ZM13.0906 29.6432C9.31554 29.6432 8.04113 26.7238 8.04113 22.222C8.04113 16.9252 10.8841 15.3415 13.1391 15.3415C16.8165 15.3415 18.0916 18.9556 18.0916 22.222C18.0916 25.7336 16.8165 29.6432 13.0906 29.6432ZM49.5669 17.5198C49.5669 10.2455 43.7323 8.90804 37.7026 8.90804C34.8097 8.90804 31.8672 9.4026 29.6129 10.6897C27.3968 12.0015 25.8516 14.1336 25.6579 17.399C24.2572 12.5982 20.8823 8.90804 15.0514 8.90804C12.11 8.90804 9.65823 10.1941 8.04113 12.62H7.94238V9.65057H0V49.689H8.33496V32.564H8.43336C10.1482 34.8896 12.5515 36.0781 15.6893 36.0781C20.1037 36.0781 23.1363 33.6994 24.8253 30.3225C25.6847 34.2301 29.101 36.0781 33.2896 36.0781C36.3291 36.0781 39.5158 35.1872 41.6731 32.9096C41.7708 33.7522 41.8688 34.5437 42.1637 35.3352H50.5465C49.567 33.3062 49.5669 30.9314 49.5669 28.7534V17.5198Z" fill="#FFFFFE"/>
<path fill-rule="evenodd" clip-rule="evenodd" d="M86.3361 19.3505L95.6502 9.65057H85.9927L78.3937 18.2117V0H70.0587V9.32515C69.4632 9.20151 68.8335 9.15601 68.2445 9.15601C64.6659 9.15601 61.8225 10.8877 60.597 14.1541H60.4989V9.65057H52.4093V35.3352H60.7435V22.6165C60.7435 19.3998 62.9012 16.53 67.0193 16.53C68.0945 16.53 69.0376 16.7123 70.0587 16.9877V35.3352H78.3937V27.1204L80.5503 24.9924L86.7775 35.3352H96.8276L86.3361 19.3505Z" fill="#FFFFFE"/>
<path fill-rule="evenodd" clip-rule="evenodd" d="M106.201 6.43383H114.537V0H106.201V6.43383ZM106.201 35.3352H114.537V9.65057H106.201V35.3352Z" fill="#FFFFFE"/>
<path fill-rule="evenodd" clip-rule="evenodd" d="M117.296 9.65058H125.386V13.1636H125.483C127.003 10.5411 130.434 8.90804 133.475 8.90804C141.956 8.90804 142.643 15.1436 142.643 18.8556V35.3352H134.308V22.9128C134.308 19.3998 134.7 15.8371 130.141 15.8371C127.003 15.8371 125.629 18.5096 125.629 21.3301V35.3352H117.296V9.65058Z" fill="#FFFFFE"/>
<path fill-rule="evenodd" clip-rule="evenodd" d="M145.422 9.65058H153.513V13.1636H153.61C155.13 10.5411 158.562 8.90804 161.602 8.90804C170.083 8.90804 170.77 15.1436 170.77 18.8556V35.3352H162.435V22.9128C162.435 19.3998 162.828 15.8371 158.269 15.8371C155.13 15.8371 153.758 18.5096 153.758 21.3301V35.3352H145.422V9.65058Z" fill="#FFFFFE"/>
<path fill-rule="evenodd" clip-rule="evenodd" d="M10.5542 49.6904H18.9865V41.1786H10.5542V49.6904Z" fill="#451826"/>
<path fill-rule="evenodd" clip-rule="evenodd" d="M18.9865 49.6904H27.4188V41.1786H18.9865V49.6904Z" fill="#F3AF53"/>
<path fill-rule="evenodd" clip-rule="evenodd" d="M27.4188 49.6904H35.8512V41.1786H27.4188V49.6904Z" fill="#1A2B45"/>
<path fill-rule="evenodd" clip-rule="evenodd" d="M35.8512 49.6904H44.2831V41.1786H35.8512V49.6904Z" fill="#918E79"/>
<path fill-rule="evenodd" clip-rule="evenodd" d="M44.2831 49.6904H52.7155V41.1786H44.2831V49.6904Z" fill="#451826"/>
<path fill-rule="evenodd" clip-rule="evenodd" d="M52.7155 49.6904H61.1478V41.1786H52.7155V49.6904Z" fill="#F3AF53"/>
<path fill-rule="evenodd" clip-rule="evenodd" d="M61.1478 49.6904H69.5798V41.1786H61.1478V49.6904Z" fill="#1A2B45"/>
<path fill-rule="evenodd" clip-rule="evenodd" d="M69.5798 49.6904H78.0121V41.1786H69.5798V49.6904Z" fill="#918E79"/>
<path fill-rule="evenodd" clip-rule="evenodd" d="M78.0121 49.6904H86.4441V41.1786H78.0121V49.6904Z" fill="#451826"/>
<path fill-rule="evenodd" clip-rule="evenodd" d="M86.4441 49.6904H94.8764V41.1786H86.4441V49.6904Z" fill="#F3AF53"/>
<path fill-rule="evenodd" clip-rule="evenodd" d="M107.038 46.7035C107.278 46.7782 107.63 46.8341 107.87 46.8341C108.609 46.8341 109.137 46.2652 109.137 45.4713C109.137 44.5857 108.674 44.0067 107.981 44.0067C107.639 44.0067 107.389 44.1185 107.038 44.4363V46.7035ZM107.038 43.6427C107.399 43.3812 107.768 43.2597 108.185 43.2597C109.22 43.2597 109.978 44.1467 109.978 45.3504C109.978 46.7695 109.146 47.6183 107.759 47.6183C107.213 47.6183 106.622 47.4971 106.215 47.3009V41.1692H107.038V43.6427Z" fill="#FFFFFE"/>
<path fill-rule="evenodd" clip-rule="evenodd" d="M111.477 49.6813H110.561L111.976 46.6382L110.367 43.3437H111.3L112.419 45.7047L113.492 43.3437H114.416L111.477 49.6813Z" fill="#FFFFFE"/>
</svg>
