<svg width="120" height="120" viewBox="0 0 120 120" fill="none" xmlns="http://www.w3.org/2000/svg">
<path d="M120 60C120 93.1371 93.1371 120 60 120C26.8629 120 0 93.1371 0 60C0 26.8629 26.8629 0 60 0C93.1371 0 120 26.8629 120 60Z" fill="#BE300C"/>
<path d="M30.9367 35.4375L59.6261 89.1519H59.9836L88.9411 35.4375H95.108V98H86.9748V47.3244H86.6173L58.3748 99.0725H56.7661L29.1492 46.9669H28.7917V98H24.8592V35.4375H30.9367Z" fill="#D8C7B6"/>
<path d="M93.4772 15.9114C93.0362 15.7752 92.5554 15.7908 92.0775 15.8916C91.4663 15.9796 90.8564 16.2024 90.2268 16.5274C89.3631 16.9745 88.6086 17.6458 87.9506 18.459C87.7279 18.7343 87.5152 19.0267 87.3124 19.3304C87.0458 19.3205 86.7692 19.3049 86.4799 19.2807C83.7386 19.0508 81.2014 19.4113 80.9391 22.7196C80.9788 22.3832 81.5375 20.5935 84.7199 20.7582C85.334 20.7894 85.9155 20.7908 86.4657 20.7667C84.659 24.2154 83.8194 28.5115 83.5684 30.243C82.5161 30.2316 81.1192 30.1195 79.2415 29.8513C79.2131 29.847 79.1819 29.8442 79.1536 29.8399C79.4003 28.1922 78.9494 12.7806 67.5372 12.7323C64.2272 12.7181 61.5 13.6747 59.3557 15.5609C58.6055 16.2208 57.9886 16.9446 57.5007 17.7295C57.3093 17.941 57.0923 18.1936 56.8413 18.5044C56.8413 18.5044 49.7064 27.3406 49.4979 27.6089C49.3589 26.2294 49.0427 24.5745 48.5491 22.6401C48.2627 21.5217 48.0726 20.7326 47.9776 20.2728C48.9391 18.7301 49.6284 17.457 50.0439 16.455C50.4594 15.453 50.6679 14.5674 50.6679 13.7953C50.6679 12.5989 50.3176 12 49.6156 12C48.9136 12 48.2074 12.7593 47.5238 14.2765C46.8388 15.7936 46.497 17.3378 46.497 18.906C46.497 19.539 46.5793 20.3239 46.7438 21.2606C44.9072 23.8535 42.9813 25.8192 40.9675 27.159C38.9523 28.4987 36.9058 29.1686 34.8268 29.1686C32.4612 29.1686 30.5396 28.547 29.0633 27.3023C27.5855 26.0576 26.8467 24.4383 26.8467 22.4442C26.8467 20.849 27.3388 19.5703 28.3216 18.608C29.3044 17.6458 30.6105 17.1646 32.24 17.1646C33.5135 17.1646 34.9133 17.5606 36.4378 18.354C37.9624 19.1473 39.5139 20.2856 41.0909 21.7687L41.4284 22.0809L44.7158 20.2728L44.4563 19.8825C43.6153 20.3508 43.0097 20.585 42.6367 20.585C42.3247 20.585 41.8525 20.321 41.22 19.7917C39.5394 18.4051 38.1694 17.4641 37.1129 16.9688C36.0549 16.4749 34.8778 16.2279 33.5774 16.2279C31.3239 16.2279 29.4987 16.8609 28.0989 18.1269C26.6992 19.3928 26 21.0448 26 23.0829C26 24.6526 26.4028 26.0136 27.2083 27.1675C27.9103 28.1907 28.8732 29.0011 30.1 29.6001C31.3253 30.199 32.6229 30.497 33.9929 30.497C36.0904 30.497 38.2432 29.7604 40.4527 28.2858C42.6623 26.8112 44.798 24.6923 46.8601 21.9262C46.8941 22.0993 46.9168 22.1944 46.9253 22.2129L47.3281 23.9685C47.7791 25.9625 48.0046 27.4414 48.0046 28.4036C48.0046 28.9841 47.8528 29.5703 47.5493 30.1592L47.8741 30.3934L48.1606 30.0287C48.1606 30.0287 55.1607 21.3457 55.5422 20.8618C55.5791 20.8149 55.6131 20.7709 55.6472 20.7284L56.1152 20.1436L56.6924 19.4099C56.3265 20.436 56.1407 21.5473 56.1407 22.7465C56.1407 25.0187 56.8668 26.8936 58.3176 28.3724C59.7684 29.8513 61.6078 30.5907 63.8343 30.5907C64.9434 30.5907 65.8879 30.4559 66.6679 30.1876L66.5899 29.9407C66.1134 30.0187 65.7063 30.0571 65.3688 30.0571C63.0983 30.0571 61.205 29.2836 59.689 27.7352C58.1729 26.1868 57.4142 24.2523 57.4142 21.9276C57.4142 19.4397 58.268 17.4073 59.974 15.8348C61.6815 14.2609 63.8868 13.4121 66.5884 13.4746C77.4702 13.7215 76.7923 26.9063 76.771 29.6341C75.2039 29.5575 73.5205 29.5717 72.0967 29.6341C71.5096 26.8936 70.1297 21.983 67.706 18.9869C67.0479 18.1737 66.2935 17.5024 65.4298 17.0553C64.6072 16.6296 63.8173 16.3784 63.016 16.3784L63.8783 19.2523L64.2825 19.1871C64.2825 19.1871 63.8287 17.5351 64.4328 17.501C67.9754 17.3037 70.3339 29.268 70.3339 29.7349C70.3339 29.7406 70.3339 29.7462 70.3339 29.7519C69.6063 29.8186 69.0632 29.9009 68.8164 29.9861C68.5583 30.0755 68.5214 30.1862 68.6292 30.3097L68.6207 30.3253C68.6321 30.3295 68.6477 30.3366 68.6604 30.3409C69.232 30.8816 72.4385 31.6154 72.4385 31.6154C72.4385 31.5089 72.3874 31.1243 72.281 30.5439C73.4993 30.3366 76.5328 30.3764 83.3557 31.1229C85.9268 31.4039 86.7664 29.8981 87.1167 29.9407C87.128 29.9407 86.8529 29.4525 86.8444 29.4596C86.4005 29.6639 86.0615 29.7661 85.829 29.7661C85.4943 29.7661 85.3269 29.5802 85.3269 29.2083C85.3269 28.8919 86.4799 24.0891 88.2342 20.5893C93.4418 19.7335 94.9167 16.3585 93.4801 15.9143L93.4772 15.9114ZM47.6784 17.0993C47.6784 16.0676 47.7989 15.1848 48.0428 14.4525C48.2854 13.7201 48.5803 13.354 48.9264 13.354C49.3859 13.354 49.6156 13.6875 49.6156 14.3559C49.6156 14.9889 49.4568 15.7738 49.1405 16.7105C48.8243 17.6472 48.4059 18.5654 47.8868 19.4681C47.7479 18.5569 47.6784 17.7692 47.6784 17.1008V17.0993ZM88.9419 19.3034C89.0468 19.1345 89.1532 18.9728 89.261 18.8166C90.2636 17.572 91.6364 16.7672 92.4647 16.6722C92.9582 16.6353 93.1213 16.8496 93.1511 17.0993C93.0816 17.6883 92.0874 19.0536 88.9419 19.3034Z" fill="#D8C7B6"/>
</svg>
